<svg xmlns="http://www.w3.org/2000/svg" width="1024" height="500" viewBox="0 0 1024 500"><defs><linearGradient id="g" x1="0" y1="0" x2="0" y2="1"><stop offset="0" stop-color="#2A9467"/><stop offset="1" stop-color="#17633F"/></linearGradient></defs><rect width="1024" height="500" fill="url(#g)"/><g transform="translate(40 62) scale(0.36)">
<g id="glyph">
  <path d="M 392 452 V 330 A 120 120 0 0 1 632 330 V 452" fill="none" stroke="#FFFFFF" stroke-width="40" stroke-linecap="round"/>
  <path d="M 310 392 H 714 Q 748 392 752 426 L 790 816 Q 794 856 754 856 H 270 Q 230 856 234 816 L 272 426 Q 276 392 310 392 Z" fill="#FFFFFF"/>
  <circle cx="392" cy="452" r="22" fill="#1F7A55"/>
  <circle cx="632" cy="452" r="22" fill="#1F7A55"/>
  <path d="M 404 636 L 486 716 L 632 562" fill="none" stroke="#1F7A55" stroke-width="62" stroke-linecap="round" stroke-linejoin="round"/>
</g>
</g><g fill="#FFFFFF" font-family="Helvetica Neue, Helvetica, Arial, sans-serif">
         <text x="420" y="228" font-size="76" font-weight="800">BOODSCHAP!</text>
         <text x="423" y="292" font-size="34" font-weight="500" opacity="0.92">Samen je boodschappenlijst.</text>
         <text x="423" y="338" font-size="34" font-weight="500" opacity="0.92">Gratis, zonder account.</text>
       </g></svg>